<svg width="230" height="231" viewBox="0 0 230 231" fill="none" xmlns="http://www.w3.org/2000/svg">
<g clip-path="url(#clip0_604_22152)">
<g clip-path="url(#clip1_604_22152)">
<path d="M115 210.918C167.745 210.918 210.502 168.161 210.502 115.416C210.502 62.6711 167.745 19.9141 115 19.9141C62.255 19.9141 19.498 62.6711 19.498 115.416C19.498 168.161 62.255 210.918 115 210.918Z" fill="#F2F2F2"/>
<path d="M190.997 73.1693C190.997 68.4428 187.162 64.6133 182.436 64.6133H47.558C42.8315 64.6133 39.002 68.4485 39.002 73.1693C39.0307 97.946 39.002 167.073 39.002 167.073H190.992C190.992 167.073 190.911 80.5293 190.992 73.1693H190.997Z" fill="white"/>
<path d="M182.441 64.6133H47.558C42.8315 64.6133 39.002 68.4485 39.002 73.1693V77.8843H190.969C190.969 75.8488 190.986 74.2388 190.997 73.1693C190.997 68.4428 187.162 64.6133 182.436 64.6133H182.441Z" fill="#B7B0B0"/>
<path d="M191.571 167.656H38.4258V167.081C38.4258 166.391 38.4545 97.6671 38.4258 73.1779C38.4258 68.1409 42.5198 64.0469 47.5568 64.0469H182.435C187.472 64.0469 191.571 68.1409 191.571 73.1779C191.491 80.4574 191.571 166.219 191.571 167.081V167.656ZM39.5815 166.506H190.421C190.416 158.939 190.347 80.1526 190.421 73.1721C190.421 68.7734 186.839 65.1969 182.435 65.1969H47.5568C43.158 65.1969 39.5758 68.7791 39.5758 73.1779C39.5988 96.4769 39.5758 159.784 39.5758 166.512L39.5815 166.506Z" fill="#808080"/>
<path d="M16.6797 163.633H213.318V163.995C213.318 168.589 209.586 172.321 204.992 172.321H25.0057C20.4114 172.321 16.6797 168.589 16.6797 163.995V163.633Z" fill="#C0BABA"/>
<path d="M168.876 73.3913C170.054 73.3913 171.003 72.431 171.003 71.2523C171.003 70.0735 170.049 69.1133 168.876 69.1133C167.703 69.1133 166.748 70.0735 166.748 71.2523C166.748 72.431 167.703 73.3913 168.876 73.3913Z" fill="#F9F1EC"/>
<path d="M175.528 73.3913C176.707 73.3913 177.655 72.431 177.655 71.2523C177.655 70.0735 176.701 69.1133 175.528 69.1133C174.355 69.1133 173.4 70.0735 173.4 71.2523C173.4 72.431 174.355 73.3913 175.528 73.3913Z" fill="#F9F1EC"/>
<path d="M182.176 73.3913C183.355 73.3913 184.304 72.431 184.304 71.2523C184.304 70.0735 183.349 69.1133 182.176 69.1133C181.003 69.1133 180.049 70.0735 180.049 71.2523C180.049 72.431 181.003 73.3913 182.176 73.3913Z" fill="#F9F1EC"/>
<path d="M126.798 163.633C125.78 165.266 123.969 166.364 121.905 166.364H108.099C106.035 166.364 104.223 165.272 103.206 163.633H101.895C103.022 165.927 105.379 167.514 108.105 167.514H121.91C124.636 167.514 126.988 165.927 128.12 163.633H126.809H126.798Z" fill="#737171"/>
<path d="M81.0738 132.369C81.0738 130.354 79.5857 128.723 77.7481 128.723H51.3386C49.6651 128.723 48.2988 130.215 48.2988 132.055V136.294C48.2988 136.363 48.2988 136.421 48.3094 136.485C48.3094 136.549 48.2988 136.613 48.2988 136.677V140.915C48.2988 142.75 49.6598 144.248 51.3386 144.248H77.7481C79.5857 144.248 81.0738 142.616 81.0738 140.602V132.38V132.369Z" fill="#E8E8E8"/>
<path d="M122.588 87.9897C122.588 86.2704 121.196 84.8789 119.477 84.8789H51.7478C49.9308 84.8789 48.4473 86.3567 48.4473 88.1794V92.3769C48.4473 94.1939 49.925 95.6774 51.7478 95.6774H119.477C121.196 95.6774 122.588 94.2859 122.588 92.5667V87.9897Z" fill="#E8E8E8"/>
<path d="M178.892 149.859H51.1096C49.6434 149.859 48.4531 151.05 48.4531 152.516V154.212C48.4531 155.678 49.6434 156.869 51.1096 156.869H178.886C180.352 156.869 181.543 155.678 181.543 154.212V152.516C181.543 151.05 180.352 149.859 178.886 149.859H178.892Z" fill="#F2F2F2"/>
<path d="M178.663 128.728H109.638C109.638 128.728 109.608 128.728 109.59 128.728H88.7093C87.0316 128.728 85.6738 130.035 85.6738 131.649V141.327C85.6738 142.941 87.0316 144.248 88.7093 144.248H157.735C157.735 144.248 157.765 144.248 157.783 144.248H178.663C180.341 144.248 181.699 142.941 181.699 141.327V131.643C181.699 130.029 180.341 128.723 178.663 128.723V128.728Z" fill="#E8E8E8"/>
<path d="M176.753 100.754H160.101C160.101 100.754 160.089 100.754 160.078 100.754H53.2429C50.5979 100.754 48.4531 102.899 48.4531 105.544V118.728C48.4531 121.373 50.5979 123.518 53.2429 123.518H69.8949C69.8949 123.518 69.9064 123.518 69.9179 123.518H176.753C179.398 123.518 181.543 121.373 181.543 118.728V105.544C181.543 102.899 179.398 100.754 176.753 100.754Z" fill="#F2F2F2"/>
<path d="M178.214 84.8867H131.759C129.942 84.8867 128.459 86.3645 128.459 88.1872V92.3847C128.459 94.2017 129.937 95.6852 131.759 95.6852H178.214C180.031 95.6852 181.514 94.2075 181.514 92.3847V88.1872C181.514 86.3702 180.036 84.8867 178.214 84.8867Z" fill="#E8E8E8"/>
<path d="M114.971 154.542C133.693 154.542 148.865 139.368 148.865 120.646C148.865 101.924 133.687 86.75 114.971 86.75C96.2542 86.75 81.0762 101.924 81.0762 120.646C81.0762 139.368 96.2542 154.542 114.971 154.542Z" fill="#CCCCCC"/>
<path d="M115.989 100.039H113.676V129.364H115.989V100.039Z" fill="white"/>
<path d="M114.854 140.582C116.444 140.582 117.739 139.294 117.739 137.713C117.739 136.132 116.444 134.844 114.854 134.844C113.264 134.844 111.969 136.132 111.969 137.713C111.969 139.294 113.264 140.582 114.854 140.582Z" fill="white"/>
</g>
</g>
<defs>
<clipPath id="clip0_604_22152">
<rect width="230" height="230" fill="white" transform="translate(0 0.5)"/>
</clipPath>
<clipPath id="clip1_604_22152">
<rect width="230" height="230" fill="white" transform="translate(0 0.5)"/>
</clipPath>
</defs>
</svg>
