<svg width="230" height="231" viewBox="0 0 230 231" fill="none" xmlns="http://www.w3.org/2000/svg">
<g clip-path="url(#clip0_604_22056)">
<g clip-path="url(#clip1_604_22056)">
<path d="M115 210.918C167.745 210.918 210.502 168.161 210.502 115.416C210.502 62.6711 167.745 19.9141 115 19.9141C62.255 19.9141 19.498 62.6711 19.498 115.416C19.498 168.161 62.255 210.918 115 210.918Z" fill="#F9F1EC"/>
<path d="M190.999 73.1693C190.999 68.4428 187.164 64.6133 182.438 64.6133H47.5599C42.8334 64.6133 39.0039 68.4485 39.0039 73.1693C39.0327 97.946 39.0039 167.073 39.0039 167.073H190.994C190.994 167.073 190.913 80.5293 190.994 73.1693H190.999Z" fill="white"/>
<path d="M182.443 64.6133H47.5599C42.8334 64.6133 39.0039 68.4485 39.0039 73.1693V77.8843H190.971C190.971 75.8488 190.988 74.2388 190.999 73.1693C190.999 68.4428 187.164 64.6133 182.438 64.6133H182.443Z" fill="#BEBEFC"/>
<path d="M191.573 167.656H38.4277V167.081C38.4277 166.391 38.4565 97.6671 38.4277 73.1779C38.4277 68.1409 42.5217 64.0469 47.5587 64.0469H182.436C187.473 64.0469 191.573 68.1409 191.573 73.1779C191.493 80.4574 191.573 166.219 191.573 167.081V167.656ZM39.5835 166.506H190.423C190.417 158.939 190.348 80.1526 190.423 73.1721C190.423 68.7734 186.841 65.1969 182.436 65.1969H47.5587C43.16 65.1969 39.5777 68.7791 39.5777 73.1779C39.6007 96.4769 39.5777 159.784 39.5777 166.512L39.5835 166.506Z" fill="#808080"/>
<path d="M16.6816 163.633H213.32V163.995C213.32 168.589 209.588 172.321 204.994 172.321H25.0076C20.4134 172.321 16.6816 168.589 16.6816 163.995V163.633Z" fill="#C0BABA"/>
<path d="M168.879 73.3913C170.058 73.3913 171.007 72.431 171.007 71.2523C171.007 70.0735 170.052 69.1133 168.879 69.1133C167.706 69.1133 166.752 70.0735 166.752 71.2523C166.752 72.431 167.706 73.3913 168.879 73.3913Z" fill="#F9F1EC"/>
<path d="M175.532 73.3913C176.711 73.3913 177.659 72.431 177.659 71.2523C177.659 70.0735 176.705 69.1133 175.532 69.1133C174.359 69.1133 173.404 70.0735 173.404 71.2523C173.404 72.431 174.359 73.3913 175.532 73.3913Z" fill="#F9F1EC"/>
<path d="M182.178 73.3913C183.357 73.3913 184.306 72.431 184.306 71.2523C184.306 70.0735 183.351 69.1133 182.178 69.1133C181.005 69.1133 180.051 70.0735 180.051 71.2523C180.051 72.431 181.005 73.3913 182.178 73.3913Z" fill="#F9F1EC"/>
<path d="M126.8 163.633C125.782 165.266 123.971 166.364 121.906 166.364H108.101C106.036 166.364 104.225 165.272 103.207 163.633H101.896C103.023 165.927 105.381 167.514 108.106 167.514H121.912C124.638 167.514 126.989 165.927 128.122 163.633H126.811H126.8Z" fill="#737171"/>
<path d="M164.881 51.0023C164.956 51.0541 164.956 51.1691 164.875 51.2151C162.345 52.6986 160.206 54.7628 158.637 57.2411C158.585 57.3158 158.47 57.3158 158.424 57.2353C156.946 54.6938 154.893 52.5376 152.432 50.9621C152.358 50.9103 152.358 50.7953 152.438 50.7493C154.968 49.2658 157.107 47.2016 158.677 44.7233C158.729 44.6486 158.844 44.6486 158.89 44.7291C160.367 47.2706 162.42 49.4268 164.881 51.0023Z" fill="#5361FF"/>
<path d="M174.703 42.4295C174.64 42.4295 174.571 42.418 174.508 42.4007C172.179 41.8372 169.689 41.8372 167.326 42.4122C167.073 42.4697 166.826 42.3892 166.67 42.211C166.509 42.0385 166.452 41.7855 166.521 41.5612C167.079 39.221 167.079 36.714 166.509 34.3392C166.458 34.0862 166.532 33.839 166.711 33.6722C166.883 33.5112 167.136 33.4537 167.355 33.5285C169.683 34.092 172.173 34.092 174.536 33.517H174.548C174.784 33.4652 175.037 33.54 175.192 33.7182C175.353 33.8907 175.41 34.1437 175.341 34.368C174.784 36.7082 174.784 39.2152 175.353 41.59C175.405 41.843 175.33 42.0902 175.152 42.257C175.025 42.372 174.864 42.4352 174.697 42.4352L174.703 42.4295ZM167.631 41.8085L167.619 41.8487C167.619 41.8487 167.625 41.82 167.631 41.8085ZM174.766 41.2737L174.807 41.2852C174.807 41.2852 174.778 41.2795 174.766 41.2737ZM170.931 40.8195C171.989 40.8195 173.047 40.923 174.088 41.1242C173.68 39.0427 173.68 36.8692 174.088 34.7762C172.012 35.1845 169.856 35.1845 167.774 34.7762C168.183 36.8577 168.183 39.0255 167.774 41.1185C168.809 40.9172 169.867 40.8137 170.925 40.8137L170.931 40.8195ZM167.061 34.6267C167.061 34.6267 167.09 34.6325 167.102 34.6382L167.061 34.6267ZM174.249 34.0575C174.249 34.0575 174.249 34.0862 174.237 34.0977L174.249 34.0575Z" fill="#2FB28A"/>
<path d="M70.2988 179.102C70.3448 179.039 70.4368 179.039 70.4771 179.102C71.7306 181.235 73.4728 183.041 75.5658 184.369C75.6291 184.415 75.6291 184.507 75.5658 184.547C73.4326 185.801 71.6271 187.543 70.2988 189.636C70.2528 189.699 70.1608 189.699 70.1206 189.636C68.8671 187.503 67.1248 185.697 65.0318 184.369C64.9686 184.323 64.9686 184.231 65.0318 184.191C67.1651 182.937 68.9706 181.195 70.2988 179.102Z" fill="#37C09F"/>
<path d="M81.0738 132.369C81.0738 130.354 79.5857 128.723 77.7481 128.723H51.3386C49.6651 128.723 48.2988 130.215 48.2988 132.055V136.294C48.2988 136.363 48.2988 136.421 48.3094 136.485C48.3094 136.549 48.2988 136.613 48.2988 136.677V140.915C48.2988 142.75 49.6598 144.248 51.3386 144.248H77.7481C79.5857 144.248 81.0738 142.616 81.0738 140.602V132.38V132.369Z" fill="#E9DCFF"/>
<path d="M122.588 87.9897C122.588 86.2704 121.196 84.8789 119.477 84.8789H51.7478C49.9308 84.8789 48.4473 86.3567 48.4473 88.1794V92.3769C48.4473 94.1939 49.925 95.6774 51.7478 95.6774H119.477C121.196 95.6774 122.588 94.2859 122.588 92.5667V87.9897Z" fill="#E9DCFF"/>
<path d="M178.892 149.859H51.1096C49.6434 149.859 48.4531 151.05 48.4531 152.516V154.212C48.4531 155.678 49.6434 156.869 51.1096 156.869H178.886C180.352 156.869 181.543 155.678 181.543 154.212V152.516C181.543 151.05 180.352 149.859 178.886 149.859H178.892Z" fill="#F5EDFF"/>
<path d="M178.663 128.728H109.638C109.638 128.728 109.608 128.728 109.59 128.728H88.7093C87.0316 128.728 85.6738 130.035 85.6738 131.649V141.327C85.6738 142.941 87.0316 144.248 88.7093 144.248H157.735C157.735 144.248 157.765 144.248 157.783 144.248H178.663C180.341 144.248 181.699 142.941 181.699 141.327V131.643C181.699 130.029 180.341 128.723 178.663 128.723V128.728Z" fill="#E9DCFF"/>
<path d="M176.753 100.754H160.101C160.101 100.754 160.089 100.754 160.078 100.754H53.2429C50.5979 100.754 48.4531 102.899 48.4531 105.544V118.728C48.4531 121.373 50.5979 123.518 53.2429 123.518H69.8949C69.8949 123.518 69.9064 123.518 69.9179 123.518H176.753C179.398 123.518 181.543 121.373 181.543 118.728V105.544C181.543 102.899 179.398 100.754 176.753 100.754Z" fill="#F5EDFF"/>
<path d="M178.214 84.8867H131.759C129.942 84.8867 128.459 86.3645 128.459 88.1872V92.3847C128.459 94.2017 129.937 95.6852 131.759 95.6852H178.214C180.031 95.6852 181.514 94.2075 181.514 92.3847V88.1872C181.514 86.3702 180.036 84.8867 178.214 84.8867Z" fill="#E9DCFF"/>
<path d="M115.023 154.347C133.641 154.347 148.729 139.253 148.729 120.64C148.729 102.027 133.636 86.9336 115.023 86.9336C96.4102 86.9336 81.3164 102.027 81.3164 120.64C81.3164 139.253 96.4102 154.347 115.023 154.347Z" fill="#24BC97"/>
<path d="M106.769 134.234C104.56 134.234 102.352 133.418 100.657 131.782L93.7246 125.092L94.9967 123.774L101.929 130.464C104.653 133.089 109.041 133.048 111.713 130.371L133.419 108.602L134.714 109.891L113.008 131.661C111.302 133.372 109.036 134.234 106.769 134.234Z" fill="white"/>
</g>
</g>
<defs>
<clipPath id="clip0_604_22056">
<rect width="230" height="230" fill="white" transform="translate(0 0.5)"/>
</clipPath>
<clipPath id="clip1_604_22056">
<rect width="230" height="230" fill="white" transform="translate(0 0.5)"/>
</clipPath>
</defs>
</svg>
