<svg xmlns="http://www.w3.org/2000/svg" width="24" height="25" viewBox="0 0 24 25" fill="none">
<path fill-rule="evenodd" clip-rule="evenodd" d="M12 22.5C17.5228 22.5 22 18.0228 22 12.5C22 6.97715 17.5228 2.5 12 2.5C6.47715 2.5 2 6.97715 2 12.5C2 18.0228 6.47715 22.5 12 22.5ZM12.572 7.5V13.5H11.4291V7.5H12.572ZM13.0006 16.5C13.0006 17.0523 12.5528 17.5 12.0006 17.5C11.4483 17.5 11.0006 17.0523 11.0006 16.5C11.0006 15.9477 11.4483 15.5 12.0006 15.5C12.5528 15.5 13.0006 15.9477 13.0006 16.5Z" fill="#6E6E6E"/>
</svg>